<svg width="23" height="22" viewBox="0 0 23 22" fill="none" xmlns="http://www.w3.org/2000/svg">
<g filter="url(#filter0_d_7_4993)">
<path d="M18.9688 7.03906C18.9688 7.60156 18.5312 8.03906 18 8.03906H8.40625L11.6875 11.3516C12.0938 11.7266 12.0938 12.3828 11.6875 12.7578C11.5 12.9453 11.25 13.0391 11 13.0391C10.7188 13.0391 10.4688 12.9453 10.2812 12.7578L5.28125 7.75781C4.875 7.38281 4.875 6.72656 5.28125 6.35156L10.2812 1.35156C10.6562 0.945312 11.3125 0.945312 11.6875 1.35156C12.0938 1.72656 12.0938 2.38281 11.6875 2.75781L8.40625 6.03906H18C18.5312 6.03906 18.9688 6.50781 18.9688 7.03906Z" fill="white"/>
</g>
<defs>
<filter id="filter0_d_7_4993" x="0.875" y="0.945312" width="22.0938" height="20.0938" filterUnits="userSpaceOnUse" color-interpolation-filters="sRGB">
<feFlood flood-opacity="0" result="BackgroundImageFix"/>
<feColorMatrix in="SourceAlpha" type="matrix" values="0 0 0 0 0 0 0 0 0 0 0 0 0 0 0 0 0 0 127 0" result="hardAlpha"/>
<feOffset dy="4"/>
<feGaussianBlur stdDeviation="2"/>
<feComposite in2="hardAlpha" operator="out"/>
<feColorMatrix type="matrix" values="0 0 0 0 0 0 0 0 0 0 0 0 0 0 0 0 0 0 0.25 0"/>
<feBlend mode="normal" in2="BackgroundImageFix" result="effect1_dropShadow_7_4993"/>
<feBlend mode="normal" in="SourceGraphic" in2="effect1_dropShadow_7_4993" result="shape"/>
</filter>
</defs>
</svg>
