<svg width="24" height="24" viewBox="0 0 24 24" fill="none" xmlns="http://www.w3.org/2000/svg">
<path d="M18.1581 7.00082V15.8397C18.1581 16.1711 18.02 16.4749 17.799 16.6959C17.5504 16.9445 17.2466 17.0826 16.9151 17.0826C16.2246 17.1102 15.6445 16.5302 15.6721 15.8397L15.6445 10.0115L7.19239 18.4637C6.6952 18.9609 5.92181 18.9609 5.42462 18.4637C4.95506 17.9941 4.92744 17.1931 5.42462 16.6959L13.8768 8.24378H8.07627C7.38574 8.2714 6.80569 7.69135 6.83331 7.00082C6.80569 6.31029 7.38574 5.73024 8.07627 5.75786H16.9151C17.6056 5.73024 18.1857 6.31029 18.1581 7.00082Z" fill="#00B8FF"/>
</svg>
