<svg width="45" height="46" viewBox="0 0 45 46" fill="none" xmlns="http://www.w3.org/2000/svg">
<path d="M6.67969 20.0977C6.67969 24.3516 10.125 27.8672 14.4492 27.8672C18.7383 27.8672 22.2187 24.3867 22.2187 20.0977C22.2187 15.8789 18.8086 12.3281 14.4492 12.3281C10.1953 12.3281 6.67969 15.8086 6.67969 20.0977ZM20.3555 22.875H18.3867C18.5273 22.1719 18.6328 21.4336 18.6328 20.6953H20.9531C20.918 21.4687 20.707 22.207 20.3555 22.875ZM7.94531 20.6953H10.2656C10.3008 21.4336 10.3711 22.1367 10.5117 22.875H8.54297C8.19141 22.207 8.01562 21.4687 7.94531 20.6953ZM11.4961 20.6953H13.8516V22.875H11.7773C11.6016 22.1719 11.4961 21.4336 11.4961 20.6953ZM13.8516 24.1055V26.4609C13.2187 26.1445 12.5859 25.3008 12.1289 24.1055H13.8516ZM15.082 26.4961V24.1406H16.8047C16.3125 25.3008 15.7148 26.1445 15.082 26.4961ZM15.082 22.875V20.6953H17.4375C17.4023 21.4336 17.2969 22.1719 17.1562 22.875H15.082ZM20.9883 19.5H18.668C18.6328 18.7617 18.5625 18.0586 18.4219 17.3203H20.3906C20.707 17.9883 20.918 18.7266 20.9883 19.5ZM17.4375 19.5H15.082V17.3203H17.1562C17.2969 18.0234 17.4023 18.7617 17.4375 19.5ZM15.082 16.0898V13.7344C15.7148 14.0508 16.3477 14.8945 16.8047 16.0898H15.082ZM13.8516 13.6992V16.0547H12.1289C12.5859 14.8945 13.1836 14.0508 13.8516 13.6992ZM13.8516 17.3203V19.5H11.4961C11.5312 18.7617 11.6367 18.0234 11.7773 17.3203H13.8516ZM10.2656 19.5H7.94531C8.01562 18.7617 8.22656 18.0234 8.54297 17.3203H10.5117C10.3711 18.0234 10.2656 18.7617 10.2656 19.5ZM9.28125 24.1055H10.8281C11.0391 24.7734 11.3203 25.4414 11.707 26.0391C10.7578 25.582 9.94922 24.9492 9.28125 24.1055ZM17.1914 26.0391C17.5781 25.4414 17.8594 24.8086 18.0703 24.1055H19.6172C18.9844 24.9492 18.1406 25.582 17.1914 26.0391ZM19.6172 16.0898H18.0703C17.8594 15.4219 17.5781 14.7891 17.1914 14.1562C18.1406 14.6133 18.9844 15.2461 19.6172 16.0898ZM11.707 14.1562C11.3203 14.7539 11.0391 15.3867 10.8281 16.0898H9.28125C9.94922 15.2461 10.7578 14.6133 11.707 14.1562Z" fill="white"/>
<path d="M25.875 29.6602H3.05859C2.70703 29.6602 2.46094 29.9414 2.46094 30.2578V32.6484C2.46094 33 2.74219 33.2461 3.05859 33.2461H25.875C26.2266 33.2461 26.4727 32.9648 26.4727 32.6484V30.2578C26.4727 29.9414 26.1914 29.6602 25.875 29.6602ZM25.2422 32.0508H3.65625V30.8906H25.2422V32.0508Z" fill="white"/>
<path d="M21.0586 34.4414H7.875C7.52344 34.4414 7.27734 34.7227 7.27734 35.0391V37.4297C7.27734 37.7813 7.55859 38.0273 7.875 38.0273H21.0586C21.4102 38.0273 21.6562 37.7461 21.6562 37.4297V35.0391C21.6562 34.7227 21.375 34.4414 21.0586 34.4414ZM20.4258 36.8672H8.47266V35.707H20.4258V36.8672Z" fill="white"/>
<path d="M30.4805 14.332L32.625 13.4883V14.543L31.2891 16.1602C31.1836 16.2656 31.1484 16.4062 31.1484 16.5469V18.0586C31.1484 18.5156 31.6406 18.832 32.0625 18.5859L34.418 17.2852C35.3672 16.7578 35.9648 15.7383 35.9648 14.6484V6.91406C35.9648 6.5625 35.6836 6.31641 35.3672 6.31641H34.418C33.4336 6.31641 32.5898 7.125 32.5898 8.14453V10.043L30.5859 11.2734C29.9883 11.625 29.6367 12.293 29.6367 12.9961V13.7695C29.6367 14.1914 30.0937 14.5078 30.4805 14.332ZM31.2539 12.3281L33.5742 10.8867C33.75 10.7812 33.8555 10.5703 33.8555 10.3594V8.10938C33.8555 7.79297 34.1016 7.51172 34.4531 7.51172H34.7695V14.6133C34.7695 15.2461 34.418 15.8437 33.8555 16.1602L32.4141 16.9687V16.7227L33.7148 15.1406C33.8203 15.0352 33.8555 14.8945 33.8555 14.7539V12.5742C33.8555 12.1523 33.4336 11.8359 33.0117 12.0117L30.9023 12.8555C30.9023 12.6445 31.043 12.4336 31.2539 12.3281Z" fill="white"/>
<path d="M44.7891 13.208C31.3945 -0.186523 36.0351 4.4541 35.0156 3.43457C34.7695 3.18848 34.3828 3.18848 34.1367 3.43457L28.1602 9.44629C27.4219 8.3916 26.2266 7.79395 24.9609 7.79395H24.3984V3.8916C24.3984 3.50488 24.0469 3.22363 23.6602 3.29395L0.527344 7.79395C0.246094 7.86426 0.0351562 8.11035 0.0351562 8.3916V41.2627C0.0351562 41.6143 0.316406 41.8604 0.632812 41.8604H28.2305C28.582 41.8604 28.8281 41.5791 28.8281 41.2627V30.0127L44.7539 14.0869C45.0351 13.8408 45.0351 13.4541 44.7891 13.208ZM28.7227 10.6064L34.5937 4.73535L41.7656 11.9072C41.0977 12.5752 30.3047 23.3682 28.8633 24.8096V11.6963C28.8633 11.3096 28.8281 10.958 28.7227 10.6064ZM23.168 4.62988V7.75879H7.03125L23.168 4.62988ZM1.26562 40.6299V8.98926H24.9609C26.4375 8.98926 27.6328 10.1846 27.6328 11.6611V40.5947H1.26562V40.6299ZM28.8633 28.2549V26.5674L42.6445 12.7861L43.4883 13.6299L28.8633 28.2549Z" fill="white"/>
</svg>
